<?xml version="1.0" encoding="UTF-8"?> <svg xmlns="http://www.w3.org/2000/svg" id="Art" viewBox="0 0 283.46 21.14"><defs><style>.cls-1{fill:#484848;}</style></defs><title>Turnberry-Wordmark-black</title><path class="cls-1" d="M19.59,6.58,17.75,4c-1.55-2.1-2.14-2.59-3.85-2.59H11.7V19.72l3.81.59v.83H4.8v-.83l3.81-.59V1.45H6.18C4.5,1.45,3.81,2,2.33,4L.49,6.58,0,6.38,1.15.2H18.93l1.19,6.18ZM50.65,1.91V13.84c0,3.52-2,6.31-5.59,6.31-3.81,0-6.18-1.71-6.18-6.34V1.61L42.46,1V.2h-10V1l3.26.59V14.5c0,4.86,3,7.2,8.31,7.2s8.09-3.56,8.09-7.86V1.91L55.05,1V.2H47.72V1Zm26.12-.59c3.06,0,5.1,1.28,5.1,4.4s-2.11,4.57-5.1,4.57H74.41V1.52a11.54,11.54,0,0,1,2.36-.2m2.5,9.46c3.75-.75,6-2.53,6-5.22C85.32,2.33,82.39.2,77.4.2H67.74V1l3.58.59V19.72l-3.58.59v.83H77.83v-.83l-3.42-.59V11.47h1.28c1.87,0,2.66.5,3.58,2.4l1.84,3.78c1.28,2.6,2,3.49,4.6,3.49h3.16v-.79A5.17,5.17,0,0,1,85.58,19,23.63,23.63,0,0,1,83,14.5a6.66,6.66,0,0,0-3.75-3.36v-.36m24.29,8.65-2.93.88v.83h7.66v-.83L105,19.43V3h.39l10.82,15,2.39,3.35h1.42V1.91L123,1V.2h-7.65V1l3.25.89V15.52h-.36l-8.51-12L107.27.2h-6.64v.89l2.93.85Zm41.67-8.65c3.65,0,5.16,1.81,5.16,4.61,0,3-1.64,4.69-5.12,4.69a15.72,15.72,0,0,1-2.8-.23V10.78h2.76m-2.76-1.12V1.45a14.41,14.41,0,0,1,2.57-.2c2.1,0,4.3.92,4.3,4,0,2.86-1.48,4.37-4,4.37Zm4,11.48c4.74,0,7.46-2.8,7.46-6,0-2.56-1.77-4.27-6-4.9V9.87c3.25-.86,4.63-2.51,4.63-5,0-2.63-2.36-4.7-6.93-4.7h-9.86V1l3.61.59V19.72l-3.61.59v.83h10.71M183.75.2h-16.6V1l3.59.59V19.72l-3.59.59v.83h18l.89-6.35-.49-.13-2.66,3.68c-.86,1.22-1.35,1.42-3.29,1.42h-5.79V11.18h2.08c2,0,2.66.65,3.31,3l.3,1h.66V6h-.66l-.3,1.09c-.62,2.3-1.34,2.92-3.31,2.92h-2.08V1.55h4.28c2,0,2.53.29,3.65,1.64L184.08,6l.46-.23Zm24.19,1.12C211,1.32,213,2.6,213,5.72s-2.1,4.57-5.09,4.57h-2.37V1.52a11.64,11.64,0,0,1,2.37-.2m2.5,9.46c3.75-.75,6.05-2.53,6.05-5.22,0-3.23-2.93-5.36-7.92-5.36H198.9V1l3.58.59V19.72l-3.58.59v.83H209v-.83l-3.42-.59V11.47h1.28c1.88,0,2.67.5,3.59,2.4l1.84,3.78c1.28,2.6,2,3.49,4.6,3.49H220v-.79A5.15,5.15,0,0,1,216.75,19a22.58,22.58,0,0,1-2.56-4.5,6.66,6.66,0,0,0-3.75-3.36v-.36m29.9-9.46c3.06,0,5.1,1.28,5.1,4.4s-2.1,4.57-5.1,4.57H238V1.52a11.54,11.54,0,0,1,2.36-.2m2.5,9.46c3.75-.75,6-2.53,6-5.22C248.89,2.33,246,.2,241,.2h-9.66V1l3.58.59V19.72l-3.58.59v.83H241.4v-.83L238,19.72V11.47h1.28c1.87,0,2.66.5,3.58,2.4l1.84,3.78c1.29,2.6,2,3.49,4.61,3.49h3.15v-.79A5.17,5.17,0,0,1,249.15,19a23.63,23.63,0,0,1-2.56-4.5,6.66,6.66,0,0,0-3.75-3.36v-.36M276.2.2V1l2.89.79L273.57,11l-5.69-9.37,3-.59V.2h-9.34V1l2.89.76,6.74,10.65v7.29l-3.81.59v.83h10.71v-.83l-3.81-.59V11.87l6.61-10L283.46,1V.2Z"></path></svg> 