<?xml version="1.0" encoding="utf-8"?>
<!-- Generator: Adobe Illustrator 24.2.1, SVG Export Plug-In . SVG Version: 6.00 Build 0)  -->
<svg version="1.1" id="Art" xmlns="http://www.w3.org/2000/svg" xmlns:xlink="http://www.w3.org/1999/xlink" x="0px" y="0px"
	 viewBox="0 0 34.8 286.8" style="enable-background:new 0 0 34.8 286.8;" xml:space="preserve">
<style type="text/css">
	.st0{fill:#484848;}
</style>
<path class="st0" d="M12.7,265.3l-2.6,1.8c-2.1,1.6-2.6,2.1-2.6,3.9v2.2h18.3l0.6-3.8h0.8v10.7h-0.8l-0.6-3.8H7.5v2.4
	c0,1.7,0.5,2.4,2.5,3.9l2.6,1.8l-0.2,0.5l-6.2-1.1V266l6.2-1.2L12.7,265.3z M8,234.2h11.9c3.5,0,6.3,2,6.3,5.6
	c0,3.8-1.7,6.2-6.3,6.2H7.7l-0.6-3.6H6.3v10h0.8l0.6-3.3h12.9c4.9,0,7.2-3,7.2-8.3c0-5.3-3.6-8.1-7.9-8.1H8l-0.9-2.9H6.3v7.3h0.8
	L8,234.2z M7.4,208.1c0-3.1,1.3-5.1,4.4-5.1s4.6,2.1,4.6,5.1v2.4H7.6C7.5,209.7,7.4,208.9,7.4,208.1 M16.9,205.6
	c-0.8-3.8-2.5-6-5.2-6c-3.2-0.1-5.4,2.9-5.4,7.9v9.7h0.8l0.6-3.6h18.1l0.6,3.6h0.8v-10.1h-0.8l-0.6,3.4h-8.2v-1.3
	c0-1.9,0.5-2.7,2.4-3.6l3.8-1.8c2.6-1.3,3.5-2,3.5-4.6V196h-0.8c0,1.2-0.5,2.4-1.4,3.3c-1.4,1-2.9,1.9-4.5,2.6
	c-1.6,0.8-2.8,2.1-3.4,3.8L16.9,205.6 M25.5,181.3l0.9,2.9h0.8v-7.7h-0.8l-0.9,3.3H9.1v-0.4l15-10.8l3.4-2.4v-1.4H8l-0.9-3H6.3v7.6
	h0.8l0.9-3.3h13.6v0.4l-12,8.5l-3.3,2.5v6.6h0.9l0.9-2.9L25.5,181.3z M16.9,139.7c0-3.6,1.8-5.2,4.6-5.2c3,0,4.7,1.6,4.7,5.1
	c0,0.9-0.1,1.9-0.2,2.8h-9.1V139.7 M15.7,142.4H7.5c-0.1-0.8-0.2-1.7-0.2-2.6c0-2.1,0.9-4.3,4-4.3c2.9,0,4.4,1.5,4.4,4L15.7,142.4z
	 M27.2,138.4c0-4.7-2.8-7.5-6-7.5c-2.6,0-4.3,1.8-4.9,6H16c-0.9-3.3-2.5-4.6-5-4.6c-2.6,0-4.7,2.4-4.7,6.9v9.9h0.8l0.6-3.6h18.1
	l0.6,3.6h0.8V138.4 M6.3,101.1v16.6h0.8l0.6-3.6h18.1l0.6,3.6h0.8v-18l-6.4-0.9l-0.1,0.5l3.7,2.7c1.2,0.9,1.4,1.4,1.4,3.3v5.8h-8.6
	V109c0-2,0.6-2.7,3-3.3l1-0.3v-0.7h-9.2v0.7l1.1,0.3c2.3,0.6,2.9,1.3,2.9,3.3v2.1H7.6v-4.3c0-2,0.3-2.5,1.6-3.6l2.8-2.3l-0.2-0.5
	L6.3,101.1z M7.4,76.9c0-3.1,1.3-5.1,4.4-5.1s4.6,2.1,4.6,5.1v2.4H7.6C7.5,78.6,7.4,77.8,7.4,76.9 M16.9,74.5
	c-0.8-3.8-2.5-6.1-5.2-6.1c-3.2,0-5.4,2.9-5.4,7.9V86h0.8l0.6-3.6h18.1l0.6,3.6h0.8V75.9h-0.8l-0.6,3.4h-8.2V78
	c0-1.9,0.5-2.7,2.4-3.6l3.8-1.8c2.6-1.3,3.5-2,3.5-4.6v-3.1h-0.8c-0.1,1.2-0.5,2.4-1.4,3.3c-1.4,1-2.9,1.9-4.5,2.6
	c-1.6,0.8-2.8,2.1-3.4,3.8L16.9,74.5 M7.4,44.5c0-3.1,1.3-5.1,4.4-5.1s4.6,2.1,4.6,5.1v2.3H7.6C7.5,46.1,7.4,45.3,7.4,44.5 M16.9,42
	c-0.8-3.8-2.5-6-5.2-6c-3.2,0-5.4,2.9-5.4,7.9v9.7h0.8L7.7,50h18.1l0.6,3.6h0.8V43.5h-0.8l-0.6,3.4h-8.2v-1.3c0-1.9,0.5-2.7,2.4-3.6
	l3.8-1.8c2.6-1.3,3.5-2,3.5-4.6v-3.1h-0.8c0,1.2-0.5,2.4-1.4,3.3c-1.4,1-2.9,1.9-4.5,2.6c-1.6,0.8-2.8,2.1-3.4,3.8L16.9,42 M6.3,8.7
	h0.8l0.8-2.9l9.2,5.5L7.7,17l-0.6-3H6.3v9.3h0.8l0.8-2.9l10.6-6.7h7.3l0.6,3.8h0.8V6.8h-0.8l-0.6,3.8H18L8,4L7.1,1.4H6.3V8.7z"/>
</svg>
